# xmcd CD database file
#
# Track frame offsets:
#	150
#	18817
#	34532
#	56825
#	77582
#	98010
#	114037
#	135525
#	152700
#	181605
#	196657
#	216620
#	231675
#	251745
#	270445
#
# Disc length: 3858 seconds
#
# Revision: 4
# Processed by: cddbd v1.5.1PL2 Copyright (c) Steve Scherf et al.
# Submitted via: CDex 1.51
#
DISCID=bd0f100f
DTITLE=Scott Kirby - The Complete Rags of Scott Joplin volume 1
DYEAR=1997
DGENRE=Jazz
TTITLE0=Searchlight Rag
TTITLE1=Sugar Cane
TTITLE2=Original Songs
TTITLE3=Sunflower Slow Drag
TTITLE4=Country Club
TTITLE5=The Rag-Time Dance
TTITLE6=Heliotrope Bouquet
TTITLE7=Paragon Rag
TTITLE8=Bethena
TTITLE9=Peacherine Rag
TTITLE10=The Entertainer
TTITLE11=Swipesy Cake Walk
TTITLE12=Weeping Willow
TTITLE13=The Easy Winners
TTITLE14=The Nonpareil
EXTD=YEAR: 1997
EXTT0=
EXTT1=
EXTT2=
EXTT3=
EXTT4=
EXTT5=
EXTT6=
EXTT7=
EXTT8=
EXTT9=
EXTT10=
EXTT11=
EXTT12=
EXTT13=
EXTT14=
PLAYORDER=
